<svg xmlns="http://www.w3.org/2000/svg" xmlns:xlink="http://www.w3.org/1999/xlink" width="269" zoomAndPan="magnify" viewBox="0 0 201.75 39.749999" height="53" preserveAspectRatio="xMidYMid meet" version="1.0"><defs><g/><clipPath id="89165eda1e"><path d="M 116.824219 13.097656 L 153.035156 13.097656 L 153.035156 28.003906 L 116.824219 28.003906 Z M 116.824219 13.097656 " clip-rule="nonzero"/></clipPath></defs><path stroke-linecap="butt" transform="matrix(0.960214, 0, 0, 0.960214, 8.041488, 6.011119)" fill="none" stroke-linejoin="miter" d="M 25.907231 20.743889 C 26.346586 20.743889 26.720852 20.59337 27.034096 20.29233 C 27.34734 19.987222 27.514132 19.612956 27.530405 19.169533 L 27.530405 12.595476 L 17.140466 12.595476 L 17.140466 19.145124 C 17.140466 19.58448 17.30319 19.958745 17.62457 20.276057 C 17.945951 20.589301 18.328352 20.743889 18.771776 20.743889 L 19.101292 20.743889 L 19.101292 21.00018 L 13.540193 21.00018 L 13.540193 20.743889 L 13.86971 20.743889 C 14.313133 20.743889 14.687399 20.589301 14.996575 20.276057 C 15.309819 19.958745 15.476611 19.58448 15.492884 19.145124 L 15.492884 5.057279 C 15.476611 4.613855 15.309819 4.243658 14.996575 3.942618 C 14.687399 3.633442 14.313133 3.482922 13.86971 3.482922 L 13.540193 3.482922 L 13.540193 3.226632 L 19.101292 3.226632 L 19.101292 3.482922 L 18.771776 3.482922 C 18.328352 3.482922 17.950019 3.633442 17.636775 3.942618 C 17.323531 4.243658 17.156738 4.613855 17.140466 5.057279 L 17.140466 11.830673 L 27.530405 11.830673 L 27.530405 5.057279 C 27.514132 4.447063 27.245637 3.987367 26.720852 3.686327 C 26.464561 3.55208 26.191998 3.482922 25.907231 3.482922 L 25.573646 3.482922 L 25.573646 3.226632 L 31.130677 3.226632 L 31.130677 3.482922 L 30.805229 3.482922 C 30.365873 3.482922 29.991608 3.63751 29.674296 3.954822 C 29.361052 4.263998 29.198327 4.638264 29.177987 5.081687 L 29.177987 19.145124 C 29.198327 19.58448 29.361052 19.958745 29.674296 20.276057 C 29.991608 20.589301 30.365873 20.743889 30.805229 20.743889 L 31.130677 20.743889 L 31.130677 21.00018 L 25.573646 21.00018 L 25.573646 20.743889 Z M 39.449951 20.743889 C 39.893374 20.743889 40.26764 20.589301 40.580884 20.276057 C 40.894128 19.958745 41.056852 19.58448 41.077192 19.145124 L 41.077192 4.927099 C 41.024307 4.520289 40.849379 4.182636 40.540203 3.901937 C 40.235095 3.621238 39.873034 3.482922 39.449951 3.482922 L 39.148911 3.482922 L 39.124502 3.226632 L 46.560997 3.226632 C 47.085783 3.226632 47.655317 3.177814 48.273669 3.08018 C 48.892021 2.974409 49.327308 2.872707 49.579531 2.771004 L 49.579531 5.968534 L 49.327308 5.968534 L 49.327308 5.508838 C 49.327308 5.106096 49.184925 4.760307 48.904225 4.47554 C 48.627594 4.186704 48.29401 4.032116 47.90754 4.015844 L 42.724775 4.015844 L 42.724775 11.855081 L 47.020693 11.855081 C 47.358346 11.838809 47.647181 11.712698 47.883131 11.476747 C 48.115013 11.244866 48.232988 10.947894 48.232988 10.593969 L 48.232988 10.231908 L 48.489279 10.231908 L 48.489279 14.243059 L 48.232988 14.243059 L 48.232988 13.864725 C 48.232988 13.527072 48.119081 13.238237 47.895336 13.002287 C 47.667522 12.762269 47.382754 12.636157 47.045102 12.619885 L 42.724775 12.619885 L 42.724775 20.210968 L 46.357592 20.210968 C 47.610568 20.210968 48.566573 19.934337 49.225606 19.377006 C 49.888707 18.819676 50.437901 17.985715 50.877256 16.883258 L 51.129479 16.883258 L 49.660893 21.00018 L 39.124502 21.00018 L 39.124502 20.743889 Z M 59.04601 20.743889 C 59.485365 20.743889 59.863699 20.589301 60.172875 20.276057 C 60.486119 19.958745 60.652911 19.58448 60.669184 19.145124 L 60.669184 5.057279 C 60.652911 4.613855 60.486119 4.243658 60.172875 3.942618 C 59.863699 3.633442 59.485365 3.482922 59.04601 3.482922 L 58.716493 3.482922 L 58.716493 3.226632 L 64.277592 3.226632 L 64.277592 3.482922 L 63.948076 3.482922 C 63.504652 3.482922 63.126319 3.633442 62.813075 3.942618 C 62.499831 4.243658 62.333038 4.613855 62.316766 5.057279 L 62.316766 19.145124 C 62.316766 19.58448 62.47949 19.958745 62.80087 20.276057 C 63.122251 20.589301 63.504652 20.743889 63.948076 20.743889 L 64.277592 20.743889 L 64.277592 21.00018 L 58.716493 21.00018 L 58.716493 20.743889 Z M 77.478591 4.015844 L 75.847281 4.015844 L 75.847281 19.145124 C 75.847281 19.58448 76.001869 19.958745 76.319181 20.276057 C 76.632425 20.589301 77.018895 20.743889 77.478591 20.743889 L 77.779631 20.743889 L 77.804039 21.00018 L 72.247009 21.00018 L 72.247009 20.743889 L 72.572457 20.743889 C 73.015881 20.743889 73.390146 20.59337 73.70339 20.29233 C 74.016634 19.987222 74.179358 19.612956 74.199699 19.169533 L 74.199699 5.081687 C 74.179358 4.638264 74.016634 4.263998 73.70339 3.954822 C 73.390146 3.63751 73.015881 3.482922 72.572457 3.482922 L 72.247009 3.482922 L 72.247009 3.226632 L 79.101765 3.226632 C 80.639508 3.226632 81.847735 3.657851 82.726446 4.512153 C 83.609225 5.366455 84.04858 6.477047 84.04858 7.839862 C 84.04858 9.198609 83.629565 10.374291 82.787467 11.366909 C 81.953506 12.355458 80.93648 12.847699 79.732321 12.847699 C 79.988612 12.969742 80.289651 13.201624 80.631372 13.547413 C 80.977161 13.89727 81.290405 14.255263 81.562968 14.629528 C 83.015281 16.712398 83.96315 17.993851 84.402505 18.477955 C 84.84186 18.957992 85.155104 19.28344 85.342237 19.462437 C 85.52937 19.641433 85.732775 19.812294 85.952453 19.983154 C 86.17213 20.154014 86.395876 20.288262 86.615554 20.394032 C 87.103726 20.629983 87.628512 20.743889 88.18991 20.743889 L 88.18991 21.00018 L 86.79455 21.00018 C 86.06636 21.00018 85.386986 20.870001 84.760498 20.609642 C 84.138078 20.345215 83.666178 20.072652 83.352934 19.796021 C 83.03969 19.515322 82.767127 19.246827 82.535245 18.986468 C 82.307431 18.722042 81.676875 17.843331 80.643576 16.358473 C 79.614346 14.865479 79.016335 14.015245 78.845474 13.803703 C 78.678682 13.592162 78.499685 13.384688 78.312553 13.177215 C 77.771495 12.603612 77.230437 12.314777 76.689379 12.314777 L 76.689379 12.062555 C 76.823626 12.078827 76.998555 12.086963 77.218232 12.086963 C 77.43791 12.086963 77.710473 12.078827 78.035921 12.062555 C 80.135063 12.013737 81.453129 11.130959 81.994187 9.422355 C 82.09589 9.080634 82.144707 8.76739 82.144707 8.470418 C 82.144707 8.173447 82.144707 7.982246 82.144707 7.896816 C 82.112162 6.761814 81.81519 5.850559 81.25786 5.154913 C 80.70053 4.463335 79.947931 4.08907 78.995994 4.040253 C 78.589184 4.02398 78.084739 4.015844 77.478591 4.015844 Z M 94.702945 20.743889 C 95.146369 20.743889 95.524703 20.589301 95.833878 20.276057 C 96.147122 19.958745 96.313915 19.58448 96.330187 19.145124 L 96.330187 5.081687 C 96.313915 4.638264 96.147122 4.263998 95.833878 3.954822 C 95.524703 3.63751 95.146369 3.482922 94.702945 3.482922 L 94.377497 3.482922 L 94.377497 3.226632 L 99.934528 3.226632 L 99.934528 3.482922 L 99.609079 3.482922 C 98.994796 3.482922 98.531032 3.743281 98.205583 4.268066 C 98.055063 4.520289 97.977769 4.792852 97.977769 5.081687 L 97.977769 20.210968 L 101.610587 20.210968 C 102.863563 20.210968 103.819567 19.934337 104.4786 19.377006 C 105.141701 18.819676 105.690896 17.985715 106.130251 16.883258 L 106.382473 16.883258 L 104.913888 21.00018 L 94.377497 21.00018 L 94.377497 20.743889 Z M 94.702945 20.743889 " stroke="#0c1922" stroke-width="1.904722" stroke-opacity="1" stroke-miterlimit="4"/><path stroke-linecap="butt" transform="matrix(0.960214, 0, 0, 0.960214, 8.041488, 6.011119)" fill="none" stroke-linejoin="miter" d="M 180.112798 20.743889 L 180.523677 20.743889 L 180.523677 21.00018 L 175.011395 21.00018 L 175.011395 20.772366 L 175.397865 20.772366 C 175.682633 20.772366 175.926719 20.658459 176.130124 20.430645 C 176.329461 20.202832 176.414891 19.950609 176.382347 19.678046 L 175.243277 6.908266 L 169.909992 18.766791 C 169.434024 19.796021 169.149257 20.658459 169.047554 21.354105 L 168.795332 21.354105 L 162.294501 7.262191 L 161.200181 19.678046 C 161.167636 19.950609 161.253066 20.202832 161.456471 20.430645 C 161.659877 20.658459 161.895827 20.772366 162.16839 20.772366 L 162.571132 20.772366 L 162.571132 21.00018 L 157.644658 21.00018 L 157.644658 20.743889 L 158.051468 20.743889 C 158.527436 20.743889 158.938315 20.601506 159.288172 20.316738 C 159.633961 20.027903 159.841434 19.637365 159.906524 19.145124 L 161.810396 2.868638 L 162.062619 2.868638 L 169.149257 18.180984 L 176.077239 2.868638 L 176.309121 2.868638 L 178.261811 19.145124 C 178.347241 19.824498 178.684894 20.296398 179.278837 20.564893 C 179.535128 20.686936 179.811759 20.743889 180.112798 20.743889 Z M 180.112798 20.743889 " stroke="#0c1922" stroke-width="1.904722" stroke-opacity="1" stroke-miterlimit="4"/><g fill="#ffffff" fill-opacity="1"><g transform="translate(19.579057, 26.175608)"><g><path d="M 13.328125 -0.25 C 13.753906 -0.25 14.117188 -0.394531 14.421875 -0.6875 C 14.722656 -0.976562 14.878906 -1.332031 14.890625 -1.75 L 14.890625 -8.0625 L 4.921875 -8.0625 L 4.921875 -1.78125 C 4.921875 -1.351562 5.070312 -0.988281 5.375 -0.6875 C 5.6875 -0.394531 6.054688 -0.25 6.484375 -0.25 L 6.796875 -0.25 L 6.796875 0 L 1.46875 0 L 1.46875 -0.25 L 1.78125 -0.25 C 2.195312 -0.25 2.554688 -0.394531 2.859375 -0.6875 C 3.160156 -0.988281 3.320312 -1.351562 3.34375 -1.78125 L 3.34375 -15.3125 C 3.320312 -15.726562 3.160156 -16.082031 2.859375 -16.375 C 2.554688 -16.664062 2.195312 -16.8125 1.78125 -16.8125 L 1.46875 -16.8125 L 1.46875 -17.0625 L 6.796875 -17.0625 L 6.796875 -16.8125 L 6.484375 -16.8125 C 6.054688 -16.8125 5.691406 -16.664062 5.390625 -16.375 C 5.097656 -16.082031 4.941406 -15.726562 4.921875 -15.3125 L 4.921875 -8.796875 L 14.890625 -8.796875 L 14.890625 -15.3125 C 14.878906 -15.894531 14.617188 -16.332031 14.109375 -16.625 C 13.867188 -16.75 13.609375 -16.8125 13.328125 -16.8125 L 13.015625 -16.8125 L 13.015625 -17.0625 L 18.359375 -17.0625 L 18.359375 -16.8125 L 18.03125 -16.8125 C 17.613281 -16.8125 17.253906 -16.660156 16.953125 -16.359375 C 16.648438 -16.066406 16.492188 -15.707031 16.484375 -15.28125 L 16.484375 -1.78125 C 16.492188 -1.351562 16.648438 -0.988281 16.953125 -0.6875 C 17.253906 -0.394531 17.613281 -0.25 18.03125 -0.25 L 18.359375 -0.25 L 18.359375 0 L 13.015625 0 L 13.015625 -0.25 Z M 13.328125 -0.25 "/></g></g></g><g fill="#ffffff" fill-opacity="1"><g transform="translate(44.143313, 26.175608)"><g><path d="M 1.78125 -0.25 C 2.195312 -0.25 2.554688 -0.394531 2.859375 -0.6875 C 3.160156 -0.988281 3.320312 -1.351562 3.34375 -1.78125 L 3.34375 -15.421875 C 3.289062 -15.816406 3.117188 -16.144531 2.828125 -16.40625 C 2.535156 -16.675781 2.1875 -16.8125 1.78125 -16.8125 L 1.484375 -16.8125 L 1.46875 -17.0625 L 8.609375 -17.0625 C 9.109375 -17.0625 9.65625 -17.109375 10.25 -17.203125 C 10.84375 -17.304688 11.257812 -17.40625 11.5 -17.5 L 11.5 -14.4375 L 11.265625 -14.4375 L 11.265625 -14.875 C 11.265625 -15.257812 11.128906 -15.585938 10.859375 -15.859375 C 10.585938 -16.140625 10.265625 -16.289062 9.890625 -16.3125 L 4.921875 -16.3125 L 4.921875 -8.78125 L 9.046875 -8.78125 C 9.367188 -8.789062 9.644531 -8.910156 9.875 -9.140625 C 10.101562 -9.367188 10.21875 -9.65625 10.21875 -10 L 10.21875 -10.328125 L 10.453125 -10.328125 L 10.453125 -6.484375 L 10.21875 -6.484375 L 10.21875 -6.84375 C 10.21875 -7.175781 10.109375 -7.453125 9.890625 -7.671875 C 9.671875 -7.898438 9.394531 -8.023438 9.0625 -8.046875 L 4.921875 -8.046875 L 4.921875 -0.75 L 8.40625 -0.75 C 9.613281 -0.75 10.53125 -1.015625 11.15625 -1.546875 C 11.789062 -2.085938 12.320312 -2.890625 12.75 -3.953125 L 12.984375 -3.953125 L 11.578125 0 L 1.46875 0 L 1.46875 -0.25 Z M 1.78125 -0.25 "/></g></g></g><g fill="#ffffff" fill-opacity="1"><g transform="translate(62.957348, 26.175608)"><g><path d="M 1.78125 -0.25 C 2.195312 -0.25 2.554688 -0.394531 2.859375 -0.6875 C 3.160156 -0.988281 3.320312 -1.351562 3.34375 -1.78125 L 3.34375 -15.3125 C 3.320312 -15.726562 3.160156 -16.082031 2.859375 -16.375 C 2.554688 -16.664062 2.195312 -16.8125 1.78125 -16.8125 L 1.46875 -16.8125 L 1.46875 -17.0625 L 6.796875 -17.0625 L 6.796875 -16.8125 L 6.484375 -16.8125 C 6.054688 -16.8125 5.691406 -16.664062 5.390625 -16.375 C 5.097656 -16.082031 4.941406 -15.726562 4.921875 -15.3125 L 4.921875 -1.78125 C 4.921875 -1.351562 5.070312 -0.988281 5.375 -0.6875 C 5.6875 -0.394531 6.054688 -0.25 6.484375 -0.25 L 6.796875 -0.25 L 6.796875 0 L 1.46875 0 L 1.46875 -0.25 Z M 1.78125 -0.25 "/></g></g></g><g fill="#ffffff" fill-opacity="1"><g transform="translate(75.948065, 26.175608)"><g><path d="M 6.484375 -16.3125 L 4.921875 -16.3125 L 4.921875 -1.78125 C 4.921875 -1.351562 5.070312 -0.988281 5.375 -0.6875 C 5.675781 -0.394531 6.046875 -0.25 6.484375 -0.25 L 6.78125 -0.25 L 6.796875 0 L 1.46875 0 L 1.46875 -0.25 L 1.78125 -0.25 C 2.195312 -0.25 2.554688 -0.394531 2.859375 -0.6875 C 3.160156 -0.976562 3.320312 -1.332031 3.34375 -1.75 L 3.34375 -15.28125 C 3.320312 -15.707031 3.160156 -16.066406 2.859375 -16.359375 C 2.554688 -16.660156 2.195312 -16.8125 1.78125 -16.8125 L 1.46875 -16.8125 L 1.46875 -17.0625 L 8.046875 -17.0625 C 9.523438 -17.0625 10.6875 -16.648438 11.53125 -15.828125 C 12.375 -15.003906 12.796875 -13.9375 12.796875 -12.625 C 12.796875 -11.320312 12.394531 -10.195312 11.59375 -9.25 C 10.789062 -8.300781 9.8125 -7.828125 8.65625 -7.828125 C 8.894531 -7.710938 9.179688 -7.488281 9.515625 -7.15625 C 9.847656 -6.820312 10.144531 -6.476562 10.40625 -6.125 C 11.800781 -4.125 12.707031 -2.890625 13.125 -2.421875 C 13.550781 -1.960938 13.851562 -1.644531 14.03125 -1.46875 C 14.21875 -1.300781 14.414062 -1.132812 14.625 -0.96875 C 14.832031 -0.8125 15.046875 -0.679688 15.265625 -0.578125 C 15.734375 -0.359375 16.234375 -0.25 16.765625 -0.25 L 16.765625 0 L 15.421875 0 C 14.722656 0 14.070312 -0.125 13.46875 -0.375 C 12.875 -0.625 12.425781 -0.882812 12.125 -1.15625 C 11.820312 -1.425781 11.5625 -1.6875 11.34375 -1.9375 C 11.125 -2.1875 10.519531 -3.023438 9.53125 -4.453125 C 8.539062 -5.890625 7.960938 -6.707031 7.796875 -6.90625 C 7.640625 -7.113281 7.46875 -7.3125 7.28125 -7.5 C 6.769531 -8.0625 6.253906 -8.34375 5.734375 -8.34375 L 5.734375 -8.578125 C 5.859375 -8.566406 6.023438 -8.5625 6.234375 -8.5625 C 6.453125 -8.5625 6.710938 -8.566406 7.015625 -8.578125 C 9.035156 -8.628906 10.304688 -9.472656 10.828125 -11.109375 C 10.921875 -11.441406 10.96875 -11.75 10.96875 -12.03125 C 10.96875 -12.3125 10.96875 -12.492188 10.96875 -12.578125 C 10.9375 -13.660156 10.648438 -14.535156 10.109375 -15.203125 C 9.578125 -15.867188 8.859375 -16.226562 7.953125 -16.28125 C 7.554688 -16.300781 7.066406 -16.3125 6.484375 -16.3125 Z M 6.484375 -16.3125 "/></g></g></g><g fill="#ffffff" fill-opacity="1"><g transform="translate(97.198634, 26.175608)"><g><path d="M 1.78125 -0.25 C 2.195312 -0.25 2.554688 -0.394531 2.859375 -0.6875 C 3.160156 -0.988281 3.320312 -1.351562 3.34375 -1.78125 L 3.34375 -15.28125 C 3.320312 -15.707031 3.160156 -16.066406 2.859375 -16.359375 C 2.554688 -16.660156 2.195312 -16.8125 1.78125 -16.8125 L 1.46875 -16.8125 L 1.46875 -17.0625 L 6.796875 -17.0625 L 6.796875 -16.8125 L 6.484375 -16.8125 C 5.898438 -16.8125 5.453125 -16.5625 5.140625 -16.0625 C 4.992188 -15.820312 4.921875 -15.5625 4.921875 -15.28125 L 4.921875 -0.75 L 8.40625 -0.75 C 9.613281 -0.75 10.53125 -1.015625 11.15625 -1.546875 C 11.789062 -2.085938 12.320312 -2.890625 12.75 -3.953125 L 12.984375 -3.953125 L 11.578125 0 L 1.46875 0 L 1.46875 -0.25 Z M 1.78125 -0.25 "/></g></g></g><g fill="#ffffff" fill-opacity="1"><g transform="translate(115.66045, 26.175608)"><g/></g></g><g fill="#ffffff" fill-opacity="1"><g transform="translate(126.507022, 26.175608)"><g/></g></g><g fill="#ffffff" fill-opacity="1"><g transform="translate(137.353595, 26.175608)"><g/></g></g><g fill="#ffffff" fill-opacity="1"><g transform="translate(148.200168, 26.175608)"><g/></g></g><g fill="#ffffff" fill-opacity="1"><g transform="translate(159.05011, 26.175608)"><g><path d="M 21.9375 -0.25 L 22.328125 -0.25 L 22.328125 0 L 17.03125 0 L 17.03125 -0.21875 L 17.40625 -0.21875 C 17.675781 -0.21875 17.910156 -0.328125 18.109375 -0.546875 C 18.304688 -0.765625 18.390625 -1.003906 18.359375 -1.265625 L 17.25 -13.53125 L 12.140625 -2.140625 C 11.679688 -1.148438 11.40625 -0.320312 11.3125 0.34375 L 11.0625 0.34375 L 4.828125 -13.1875 L 3.78125 -1.265625 C 3.75 -1.003906 3.828125 -0.765625 4.015625 -0.546875 C 4.210938 -0.328125 4.441406 -0.21875 4.703125 -0.21875 L 5.09375 -0.21875 L 5.09375 0 L 0.359375 0 L 0.359375 -0.25 L 0.75 -0.25 C 1.207031 -0.25 1.601562 -0.382812 1.9375 -0.65625 C 2.269531 -0.9375 2.46875 -1.3125 2.53125 -1.78125 L 4.359375 -17.40625 L 4.609375 -17.40625 L 11.40625 -2.703125 L 18.0625 -17.40625 L 18.28125 -17.40625 L 20.15625 -1.78125 C 20.238281 -1.125 20.566406 -0.671875 21.140625 -0.421875 C 21.378906 -0.304688 21.644531 -0.25 21.9375 -0.25 Z M 21.9375 -0.25 "/></g></g></g><g clip-path="url(#89165eda1e)"><path fill="#eac96a" d="M 151.40625 23.265625 C 151.035156 24.105469 150.464844 24.863281 149.769531 25.476562 C 149.070312 26.089844 148.234375 26.542969 147.335938 26.8125 C 146.890625 26.945312 146.425781 27.03125 145.957031 27.0625 C 145.839844 27.070312 145.71875 27.078125 145.601562 27.078125 L 145.25 27.074219 C 145.191406 27.078125 145.132812 27.070312 145.074219 27.066406 L 144.898438 27.050781 L 144.722656 27.039062 C 144.660156 27.03125 144.601562 27.019531 144.542969 27.011719 C 144.074219 26.953125 143.609375 26.835938 143.148438 26.691406 C 142.6875 26.550781 142.242188 26.359375 141.800781 26.152344 L 141.472656 25.992188 L 141.152344 25.820312 C 141.042969 25.765625 140.9375 25.703125 140.832031 25.640625 C 140.726562 25.578125 140.617188 25.519531 140.515625 25.457031 C 140.097656 25.199219 139.6875 24.925781 139.289062 24.640625 C 138.492188 24.0625 137.730469 23.429688 137.007812 22.753906 C 136.445312 22.234375 135.898438 21.6875 135.382812 21.117188 L 135.472656 21.003906 L 135.613281 20.589844 C 135.621094 20.714844 135.574219 20.875 135.492188 20.976562 C 135.453125 21.027344 135.488281 20.988281 135.480469 20.996094 L 135.488281 20.988281 L 135.515625 20.953125 L 135.570312 20.886719 L 135.6875 20.75 L 135.925781 20.476562 C 136.082031 20.296875 136.246094 20.117188 136.414062 19.9375 C 136.742188 19.585938 137.082031 19.238281 137.429688 18.898438 C 138.128906 18.226562 138.855469 17.585938 139.621094 17 C 140 16.703125 140.390625 16.429688 140.789062 16.164062 C 141.191406 15.902344 141.597656 15.660156 142.015625 15.4375 C 142.851562 15 143.726562 14.65625 144.617188 14.488281 C 144.671875 14.476562 144.730469 14.464844 144.785156 14.457031 L 144.953125 14.4375 L 145.117188 14.414062 L 145.203125 14.402344 L 145.285156 14.398438 L 145.621094 14.382812 C 145.730469 14.378906 145.84375 14.382812 145.957031 14.382812 C 146.40625 14.398438 146.855469 14.46875 147.289062 14.582031 C 147.726562 14.695312 148.148438 14.859375 148.546875 15.066406 C 148.949219 15.269531 149.332031 15.519531 149.679688 15.8125 C 150.375 16.390625 150.949219 17.121094 151.335938 17.945312 C 151.730469 18.765625 151.945312 19.671875 151.957031 20.589844 C 151.96875 21.503906 151.78125 22.421875 151.40625 23.265625 Z M 134.425781 20.117188 L 134.417969 20.128906 L 134.390625 20.164062 C 134.386719 20.167969 134.386719 20.171875 134.382812 20.175781 L 134.382812 20.171875 L 134.277344 20.304688 L 134.164062 20.445312 C 134.089844 20.539062 134.011719 20.628906 133.933594 20.722656 C 133.78125 20.90625 133.621094 21.085938 133.457031 21.265625 C 133.136719 21.625 132.800781 21.976562 132.460938 22.316406 C 131.773438 22.996094 131.050781 23.640625 130.292969 24.226562 C 129.917969 24.523438 129.527344 24.800781 129.128906 25.0625 C 128.730469 25.324219 128.320312 25.558594 127.90625 25.78125 C 127.070312 26.207031 126.191406 26.542969 125.296875 26.699219 L 125.128906 26.730469 L 124.960938 26.75 C 124.851562 26.757812 124.738281 26.777344 124.628906 26.785156 L 124.289062 26.796875 C 124.261719 26.796875 124.234375 26.800781 124.207031 26.800781 L 124.121094 26.800781 L 123.953125 26.796875 C 123.503906 26.777344 123.054688 26.714844 122.617188 26.601562 C 121.746094 26.371094 120.921875 25.960938 120.21875 25.390625 C 119.515625 24.816406 118.9375 24.09375 118.535156 23.277344 C 118.136719 22.460938 117.917969 21.558594 117.898438 20.640625 C 117.875 19.726562 118.054688 18.808594 118.421875 17.960938 C 118.605469 17.539062 118.832031 17.136719 119.101562 16.761719 C 119.375 16.390625 119.683594 16.042969 120.03125 15.734375 C 120.375 15.421875 120.753906 15.148438 121.160156 14.921875 C 121.5625 14.691406 121.996094 14.507812 122.441406 14.371094 C 122.886719 14.238281 123.351562 14.148438 123.820312 14.113281 C 124.289062 14.074219 124.753906 14.101562 125.226562 14.164062 C 125.695312 14.226562 126.160156 14.347656 126.617188 14.5 C 126.84375 14.570312 127.070312 14.660156 127.292969 14.746094 C 127.515625 14.84375 127.742188 14.9375 127.957031 15.046875 C 128.179688 15.148438 128.394531 15.265625 128.609375 15.378906 C 128.820312 15.5 129.035156 15.617188 129.242188 15.746094 C 129.453125 15.871094 129.65625 16.007812 129.863281 16.140625 C 130.066406 16.277344 130.273438 16.414062 130.472656 16.558594 C 130.871094 16.839844 131.261719 17.140625 131.644531 17.453125 C 132.027344 17.765625 132.402344 18.085938 132.769531 18.417969 C 133.355469 18.945312 133.921875 19.496094 134.464844 20.074219 L 134.457031 20.082031 Z M 152.382812 17.460938 C 151.941406 16.476562 151.273438 15.597656 150.460938 14.890625 C 149.644531 14.179688 148.664062 13.65625 147.617188 13.367188 C 147.097656 13.222656 146.554688 13.132812 146.015625 13.105469 C 145.878906 13.101562 145.742188 13.09375 145.605469 13.097656 L 145.195312 13.113281 L 145.09375 13.117188 L 144.585938 13.175781 C 144.519531 13.183594 144.453125 13.199219 144.386719 13.210938 C 143.320312 13.390625 142.328125 13.785156 141.402344 14.257812 C 140.9375 14.496094 140.492188 14.761719 140.058594 15.039062 C 139.628906 15.320312 139.203125 15.613281 138.796875 15.925781 C 137.984375 16.542969 137.214844 17.214844 136.484375 17.921875 C 136.117188 18.273438 135.761719 18.636719 135.414062 19.003906 C 135.238281 19.191406 135.066406 19.378906 134.898438 19.570312 C 134.8125 19.664062 134.730469 19.761719 134.648438 19.859375 L 134.519531 20.003906 L 134.492188 20.039062 C 133.367188 18.65625 132.097656 17.386719 130.699219 16.257812 C 130.503906 16.097656 130.304688 15.949219 130.105469 15.796875 C 129.902344 15.648438 129.699219 15.5 129.488281 15.359375 C 129.285156 15.21875 129.070312 15.085938 128.855469 14.953125 C 128.636719 14.824219 128.421875 14.691406 128.199219 14.574219 C 127.976562 14.449219 127.75 14.34375 127.519531 14.230469 C 127.289062 14.128906 127.054688 14.023438 126.816406 13.933594 C 126.339844 13.753906 125.847656 13.597656 125.335938 13.507812 C 125.273438 13.492188 125.207031 13.476562 125.144531 13.46875 L 124.949219 13.441406 C 124.820312 13.425781 124.691406 13.40625 124.5625 13.402344 C 124.429688 13.394531 124.300781 13.382812 124.167969 13.378906 C 124.039062 13.382812 123.910156 13.378906 123.777344 13.382812 C 123.257812 13.402344 122.734375 13.480469 122.226562 13.613281 C 121.71875 13.746094 121.226562 13.933594 120.757812 14.175781 C 120.289062 14.421875 119.847656 14.714844 119.445312 15.054688 C 117.8125 16.398438 116.816406 18.507812 116.824219 20.652344 C 116.820312 21.71875 117.050781 22.792969 117.503906 23.769531 C 117.953125 24.746094 118.628906 25.617188 119.449219 26.316406 C 120.273438 27.011719 121.25 27.527344 122.296875 27.8125 C 122.816406 27.957031 123.355469 28.042969 123.894531 28.070312 L 124.199219 28.082031 C 124.234375 28.082031 124.265625 28.078125 124.300781 28.078125 L 124.707031 28.066406 C 124.84375 28.0625 124.976562 28.042969 125.113281 28.03125 L 125.316406 28.011719 L 125.511719 27.976562 C 126.046875 27.898438 126.5625 27.75 127.0625 27.582031 L 127.433594 27.445312 C 127.554688 27.394531 127.675781 27.34375 127.796875 27.292969 L 127.980469 27.214844 L 128.15625 27.132812 C 128.273438 27.074219 128.390625 27.019531 128.507812 26.960938 C 128.972656 26.722656 129.421875 26.464844 129.855469 26.1875 C 130.289062 25.90625 130.714844 25.613281 131.117188 25.300781 C 131.523438 24.988281 131.921875 24.664062 132.300781 24.324219 C 132.683594 23.988281 133.058594 23.640625 133.417969 23.28125 C 133.78125 22.925781 134.128906 22.558594 134.472656 22.179688 C 134.644531 21.992188 134.8125 21.800781 134.976562 21.609375 C 135.058594 21.511719 135.140625 21.414062 135.222656 21.3125 L 135.347656 21.164062 L 135.351562 21.15625 C 135.519531 21.371094 135.691406 21.582031 135.863281 21.789062 C 136.1875 22.167969 136.519531 22.539062 136.859375 22.902344 C 137.546875 23.625 138.28125 24.308594 139.058594 24.941406 C 139.449219 25.257812 139.847656 25.5625 140.265625 25.84375 C 140.367188 25.914062 140.476562 25.980469 140.582031 26.050781 C 140.6875 26.117188 140.792969 26.1875 140.902344 26.25 L 141.230469 26.445312 L 141.5625 26.628906 C 142.011719 26.863281 142.46875 27.085938 142.953125 27.257812 C 143.429688 27.4375 143.925781 27.589844 144.4375 27.675781 C 144.5 27.6875 144.5625 27.703125 144.628906 27.714844 L 144.820312 27.738281 L 145.015625 27.761719 C 145.082031 27.769531 145.144531 27.777344 145.210938 27.78125 L 145.601562 27.800781 C 145.734375 27.804688 145.863281 27.796875 145.992188 27.796875 C 146.515625 27.78125 147.039062 27.707031 147.546875 27.578125 C 148.566406 27.316406 149.53125 26.835938 150.347656 26.164062 C 151.167969 25.496094 151.847656 24.644531 152.308594 23.683594 C 152.773438 22.726562 153.023438 21.660156 153.035156 20.589844 C 153.046875 19.519531 152.824219 18.441406 152.382812 17.460938 " fill-opacity="1" fill-rule="nonzero"/></g></svg>